v -0.001795 -0.223333 0.028219 1.000000 0.000000 0.000000
v 0.067725 -0.314740 0.021404 1.000000 0.000000 0.000000
v -0.069466 -0.313855 0.023899 1.000000 0.000000 0.000000
v -0.004328 -0.114370 0.001523 1.000000 0.000000 0.000000
v 0.102001 -0.689938 0.016908 1.000000 0.000000 0.000000
v -0.107756 -0.696424 0.015049 1.000000 0.000000 0.000000
v 0.001159 0.020810 0.002615 1.000000 0.000000 0.000000
v 0.088406 -1.087899 -0.026785 1.000000 0.000000 0.000000
v -0.091982 -1.094839 -0.027263 1.000000 0.000000 0.000000
v 0.002616 0.073732 0.028040 1.000000 0.000000 0.000000
v 0.114764 -1.143690 0.092503 1.000000 0.000000 0.000000
v -0.117354 -1.142983 0.096085 1.000000 0.000000 0.000000
v -0.000162 0.287603 -0.014817 1.000000 0.000000 0.000000
v 0.081461 0.195482 -0.006050 1.000000 0.000000 0.000000
v -0.079143 0.192565 -0.010575 1.000000 0.000000 0.000000
v 0.004990 0.352572 0.036532 1.000000 0.000000 0.000000
v 0.172438 0.225951 -0.014918 1.000000 0.000000 0.000000
v -0.175155 0.225116 -0.019718 1.000000 0.000000 0.000000
v 0.432050 0.213179 -0.042374 1.000000 0.000000 0.000000
v -0.428897 0.211787 -0.041119 1.000000 0.000000 0.000000
v 0.681284 0.222165 -0.043545 1.000000 0.000000 0.000000
v -0.684196 0.219560 -0.046679 1.000000 0.000000 0.000000
v 0.783767 0.213183 -0.022054 1.000000 0.000000 0.000000
v 0.815567 0.216115 -0.018788 1.000000 0.000000 0.000000
v 0.837963 0.214387 -0.018140 1.000000 0.000000 0.000000
v 0.791063 0.216050 -0.044867 1.000000 0.000000 0.000000
v 0.821578 0.217270 -0.048936 1.000000 0.000000 0.000000
v 0.845128 0.215785 -0.052425 1.000000 0.000000 0.000000
v 0.765890 0.208316 -0.084165 1.000000 0.000000 0.000000
v 0.781693 0.207917 -0.094992 1.000000 0.000000 0.000000
v 0.797573 0.206667 -0.105123 1.000000 0.000000 0.000000
v 0.779095 0.213415 -0.067855 1.000000 0.000000 0.000000
v 0.806930 0.215059 -0.072228 1.000000 0.000000 0.000000
v 0.829592 0.213672 -0.078705 1.000000 0.000000 0.000000
v 0.723217 0.202218 -0.017008 1.000000 0.000000 0.000000
v 0.740918 0.203986 0.007192 1.000000 0.000000 0.000000
v 0.762149 0.200379 0.022060 1.000000 0.000000 0.000000
v -0.783494 0.210911 -0.022044 1.000000 0.000000 0.000000
v -0.815675 0.213810 -0.019676 1.000000 0.000000 0.000000
v -0.837971 0.212032 -0.020059 1.000000 0.000000 0.000000
v -0.791352 0.214082 -0.045896 1.000000 0.000000 0.000000
v -0.821700 0.215536 -0.050057 1.000000 0.000000 0.000000
v -0.844837 0.214110 -0.053971 1.000000 0.000000 0.000000
v -0.767226 0.205917 -0.086044 1.000000 0.000000 0.000000
v -0.782858 0.205594 -0.097170 1.000000 0.000000 0.000000
v -0.798573 0.204555 -0.107284 1.000000 0.000000 0.000000
v -0.779985 0.211294 -0.069581 1.000000 0.000000 0.000000
v -0.807581 0.213015 -0.074152 1.000000 0.000000 0.000000
v -0.829999 0.211622 -0.081116 1.000000 0.000000 0.000000
v -0.722013 0.199415 -0.016553 1.000000 0.000000 0.000000
v -0.739451 0.200249 0.007932 1.000000 0.000000 0.000000
v -0.760795 0.195263 0.022366 1.000000 0.000000 0.000000
v 0.002560 0.091516 0.130803 1.000000 0.000000 0.000000
v 0.000826 -0.012569 -0.081214 1.000000 0.000000 0.000000
v 0.081539 -0.166073 -0.086451 1.000000 0.000000 0.000000
v -0.080623 -0.166486 -0.088564 1.000000 0.000000 0.000000
v 0.094312 0.055878 -0.098329 1.000000 0.000000 0.000000
v -0.096469 0.058021 -0.101481 1.000000 0.000000 0.000000
v 0.132175 -0.443551 0.119075 1.000000 0.000000 0.000000
v 0.055771 -0.531140 0.099640 1.000000 0.000000 0.000000
v 0.186548 -0.389343 0.015335 1.000000 0.000000 0.000000
v -0.134474 -0.444976 0.115510 1.000000 0.000000 0.000000
v -0.057021 -0.533051 0.094991 1.000000 0.000000 0.000000
v -0.190485 -0.389234 0.013237 1.000000 0.000000 0.000000
v 0.233595 0.264397 0.007200 1.000000 0.000000 0.000000
v 0.317889 0.195441 0.013823 1.000000 0.000000 0.000000
v -0.230456 0.262375 0.006247 1.000000 0.000000 0.000000
v -0.316748 0.192425 0.012812 1.000000 0.000000 0.000000
v 0.507431 0.262532 -0.020978 1.000000 0.000000 0.000000
v 0.586419 0.188962 -0.038988 1.000000 0.000000 0.000000
v -0.504730 0.261716 -0.023947 1.000000 0.000000 0.000000
v -0.584497 0.186017 -0.039172 1.000000 0.000000 0.000000
v 0.156974 -0.792768 -0.020473 1.000000 0.000000 0.000000
v 0.041413 -0.799543 -0.016755 1.000000 0.000000 0.000000
v -0.160973 -0.792726 -0.025404 1.000000 0.000000 0.000000
v -0.044703 -0.798235 -0.021014 1.000000 0.000000 0.000000
v -0.000212 0.549893 -0.027774 1.000000 0.000000 0.000000
v 0.044873 0.494075 0.089621 1.000000 0.000000 0.000000
v -0.043162 0.492608 0.087724 1.000000 0.000000 0.000000
v 0.056079 0.464124 -0.064914 1.000000 0.000000 0.000000
v -0.056477 0.463563 -0.063289 1.000000 0.000000 0.000000
v 0.097877 -1.121808 -0.087602 1.000000 0.000000 0.000000
v 0.071917 -1.144300 0.154872 1.000000 0.000000 0.000000
v 0.068130 -1.130549 0.109117 1.000000 0.000000 0.000000
v 0.153557 -1.136106 0.079866 1.000000 0.000000 0.000000
v -0.098832 -1.121032 -0.088184 1.000000 0.000000 0.000000
v -0.075232 -1.144565 0.157166 1.000000 0.000000 0.000000
v -0.068731 -1.130072 0.112056 1.000000 0.000000 0.000000
v -0.154819 -1.138028 0.082066 1.000000 0.000000 0.000000
v 0.002352 0.223126 0.069536 1.000000 0.000000 0.000000
v 0.069748 0.237220 0.052998 1.000000 0.000000 0.000000
v -0.045742 0.230454 0.060967 1.000000 0.000000 0.000000
v 0.151469 0.270943 0.024256 1.000000 0.000000 0.000000
v -0.137892 0.268752 0.019009 1.000000 0.000000 0.000000
v 0.163163 0.140452 -0.078572 1.000000 0.000000 0.000000
v -0.149170 0.145692 -0.089117 1.000000 0.000000 0.000000
v -0.000544 0.264089 -0.080255 1.000000 0.000000 0.000000
v 0.057330 0.331050 0.017143 1.000000 0.000000 0.000000
v -0.055927 0.327640 0.017618 1.000000 0.000000 0.000000
v 0.102192 0.064734 0.132612 1.000000 0.000000 0.000000
v -0.094870 0.063065 0.131098 1.000000 0.000000 0.000000
v 0.097478 -0.161516 0.130169 1.000000 0.000000 0.000000
v -0.088389 -0.167406 0.137401 1.000000 0.000000 0.000000
v 0.786027 0.200567 0.044468 1.000000 0.000000 0.000000
v 0.863487 0.215603 -0.018324 1.000000 0.000000 0.000000
v 0.873117 0.219406 -0.056273 1.000000 0.000000 0.000000
v 0.854283 0.216718 -0.085163 1.000000 0.000000 0.000000
v 0.816093 0.207843 -0.115430 1.000000 0.000000 0.000000
v -0.781717 0.196409 0.046459 1.000000 0.000000 0.000000
v -0.862739 0.213392 -0.020662 1.000000 0.000000 0.000000
v -0.871958 0.217934 -0.058217 1.000000 0.000000 0.000000
v -0.854246 0.214959 -0.087684 1.000000 0.000000 0.000000
v -0.817035 0.206252 -0.117214 1.000000 0.000000 0.000000
